<svg width="18" height="18" viewBox="0 0 18 18" fill="none" xmlns="http://www.w3.org/2000/svg">
<path fill-rule="evenodd" clip-rule="evenodd" d="M8.59371 18C3.27497 18 0 14.2314 0 9.44628C0 3.79339 4.45691 0 9.52941 0C14.3803 0 18 3 18 7.73554C18 12.0496 15.7346 13.7603 13.4692 13.7603C12.3611 13.7603 11.4501 13.2397 11.0561 12.4959C10.2928 13.2397 9.13543 13.7107 8.02736 13.7107C5.31874 13.7107 3.93981 11.7769 3.93981 9.44628C3.93981 6.44628 6.1067 4.01653 9.28317 4.01653C10.1943 4.01653 10.933 4.26446 11.4993 4.68595L11.5978 4.26446H13.9371L12.7798 9.71901C12.5581 10.8099 12.8044 11.6777 13.8632 11.6777C15.1683 11.6777 15.9316 10.5868 15.9316 7.68595C15.9316 3.81818 12.9029 2.00826 9.50479 2.00826C5.6881 2.00826 2.16689 4.66116 2.16689 9.44628C2.16689 13.3636 4.6539 15.9174 8.59371 15.9174C10.0711 15.9174 11.5978 15.595 12.9275 14.9008L13.7401 16.9091C12.2134 17.6033 10.1943 18 8.59371 18ZM8.42134 11.3802C9.06156 11.3802 9.70178 11.2066 10.2189 10.686L11.0068 7.01653C10.5636 6.54545 9.92339 6.32231 9.3078 6.32231C7.68263 6.32231 6.50068 7.58678 6.50068 9.24793C6.50068 10.5372 7.11628 11.3802 8.42134 11.3802Z" fill="#394F91"/>
</svg>
