<svg width="14" height="14" viewBox="0 0 14 14" fill="none" xmlns="http://www.w3.org/2000/svg">
<path d="M4.46377 3.51282C4.235 3.51282 4.04529 3.32311 4.04529 3.09434V1.42043C4.04529 1.19166 4.235 1.00195 4.46377 1.00195C4.69253 1.00195 4.88224 1.19166 4.88224 1.42043V3.09434C4.88224 3.32311 4.69253 3.51282 4.46377 3.51282Z" fill="#394F91"/>
<path d="M8.92751 3.51282C8.69874 3.51282 8.50903 3.32311 8.50903 3.09434V1.42043C8.50903 1.19166 8.69874 1.00195 8.92751 1.00195C9.15628 1.00195 9.34599 1.19166 9.34599 1.42043V3.09434C9.34599 3.32311 9.15628 3.51282 8.92751 3.51282Z" fill="#394F91"/>
<path d="M4.74279 8.39532C4.67025 8.39532 4.59771 8.37859 4.53076 8.35069C4.45822 8.32279 4.40242 8.28372 4.34663 8.2335C4.24619 8.12749 4.18481 7.988 4.18481 7.83735C4.18481 7.76481 4.20155 7.69227 4.22945 7.62531C4.25735 7.55836 4.29641 7.49699 4.34663 7.44119C4.40242 7.39097 4.45822 7.3519 4.53076 7.32401C4.73163 7.24031 4.98271 7.28496 5.13894 7.44119C5.23938 7.54721 5.30076 7.69227 5.30076 7.83735C5.30076 7.87082 5.29518 7.90989 5.2896 7.94895C5.28402 7.98243 5.27286 8.0159 5.25612 8.04938C5.24496 8.08286 5.22822 8.11633 5.2059 8.14981C5.18916 8.17771 5.16126 8.2056 5.13894 8.2335C5.03293 8.33394 4.88786 8.39532 4.74279 8.39532Z" fill="#394F91"/>
<path d="M6.69567 8.39487C6.62313 8.39487 6.55059 8.37814 6.48364 8.35024C6.4111 8.32234 6.3553 8.28327 6.29951 8.23305C6.19907 8.12704 6.1377 7.98755 6.1377 7.8369C6.1377 7.76436 6.15444 7.69182 6.18233 7.62486C6.21023 7.55791 6.24929 7.49654 6.29951 7.44074C6.3553 7.39052 6.4111 7.35145 6.48364 7.32356C6.68451 7.23428 6.93559 7.28451 7.09183 7.44074C7.19226 7.54676 7.25364 7.69182 7.25364 7.8369C7.25364 7.87037 7.24806 7.90944 7.24248 7.9485C7.2369 7.98198 7.22574 8.01545 7.209 8.04893C7.19784 8.08241 7.1811 8.11588 7.15878 8.14936C7.14204 8.17726 7.11414 8.20515 7.09183 8.23305C6.98581 8.33349 6.84074 8.39487 6.69567 8.39487Z" fill="#292D32"/>
<path d="M8.64855 8.39487C8.57601 8.39487 8.50347 8.37814 8.43652 8.35024C8.36398 8.32234 8.30819 8.28327 8.25239 8.23305C8.23007 8.20515 8.20775 8.17726 8.18543 8.14936C8.16311 8.11588 8.14637 8.08241 8.13521 8.04893C8.11848 8.01545 8.10732 7.98198 8.10174 7.9485C8.09616 7.90944 8.09058 7.87037 8.09058 7.8369C8.09058 7.69182 8.15195 7.54676 8.25239 7.44074C8.30819 7.39052 8.36398 7.35145 8.43652 7.32356C8.64297 7.23428 8.88847 7.28451 9.04471 7.44074C9.14514 7.54676 9.20652 7.69182 9.20652 7.8369C9.20652 7.87037 9.20094 7.90944 9.19536 7.9485C9.18978 7.98198 9.17862 8.01545 9.16188 8.04893C9.15072 8.08241 9.13398 8.11588 9.11166 8.14936C9.09493 8.17726 9.06703 8.20515 9.04471 8.23305C8.93869 8.33349 8.79362 8.39487 8.64855 8.39487Z" fill="#292D32"/>
<path d="M4.74279 10.348C4.67025 10.348 4.59771 10.3312 4.53076 10.3033C4.4638 10.2754 4.40242 10.2364 4.34663 10.1862C4.24619 10.0801 4.18481 9.93508 4.18481 9.79001C4.18481 9.71747 4.20155 9.64493 4.22945 9.57797C4.25735 9.50544 4.29641 9.44407 4.34663 9.39385C4.55308 9.1874 4.9325 9.1874 5.13894 9.39385C5.23938 9.49987 5.30076 9.64493 5.30076 9.79001C5.30076 9.93508 5.23938 10.0801 5.13894 10.1862C5.03293 10.2866 4.88786 10.348 4.74279 10.348Z" fill="#292D32"/>
<path d="M6.69567 10.348C6.55059 10.348 6.40552 10.2866 6.29951 10.1862C6.19907 10.0801 6.1377 9.93508 6.1377 9.79001C6.1377 9.71747 6.15444 9.64493 6.18233 9.57797C6.21023 9.50544 6.24929 9.44407 6.29951 9.39385C6.50596 9.1874 6.88538 9.1874 7.09183 9.39385C7.14204 9.44407 7.1811 9.50544 7.209 9.57797C7.2369 9.64493 7.25364 9.71747 7.25364 9.79001C7.25364 9.93508 7.19226 10.0801 7.09183 10.1862C6.98581 10.2866 6.84074 10.348 6.69567 10.348Z" fill="#292D32"/>
<path d="M8.64855 10.3479C8.50347 10.3479 8.3584 10.2865 8.25239 10.1861C8.20217 10.1359 8.16311 10.0745 8.13521 10.0019C8.10732 9.93499 8.09058 9.86245 8.09058 9.78991C8.09058 9.71738 8.10732 9.64484 8.13521 9.57788C8.16311 9.50534 8.20217 9.44398 8.25239 9.39376C8.38072 9.26542 8.57601 9.20404 8.75456 9.2431C8.79362 9.24867 8.8271 9.25983 8.86058 9.27657C8.89406 9.28773 8.92753 9.30449 8.96101 9.3268C8.98891 9.34354 9.01681 9.37144 9.04471 9.39376C9.14514 9.49977 9.20652 9.64484 9.20652 9.78991C9.20652 9.93499 9.14514 10.0801 9.04471 10.1861C8.93869 10.2865 8.79362 10.3479 8.64855 10.3479Z" fill="#292D32"/>
<path d="M11.4384 5.79472H1.9529C1.72413 5.79472 1.53442 5.60501 1.53442 5.37624C1.53442 5.14747 1.72413 4.95776 1.9529 4.95776H11.4384C11.6672 4.95776 11.8569 5.14747 11.8569 5.37624C11.8569 5.60501 11.6672 5.79472 11.4384 5.79472Z" fill="#292D32"/>
<path d="M8.9276 12.9983H4.46383C2.42723 12.9983 1.25549 11.8265 1.25549 9.78995V5.0472C1.25549 3.01061 2.42723 1.83887 4.46383 1.83887H8.9276C10.9642 1.83887 12.1359 3.01061 12.1359 5.0472V9.78995C12.1359 11.8265 10.9642 12.9983 8.9276 12.9983ZM4.46383 2.67582C2.86803 2.67582 2.09245 3.4514 2.09245 5.0472V9.78995C2.09245 11.3858 2.86803 12.1613 4.46383 12.1613H8.9276C10.5234 12.1613 11.299 11.3858 11.299 9.78995V5.0472C11.299 3.4514 10.5234 2.67582 8.9276 2.67582H4.46383Z" fill="#292D32"/>
</svg>
