<svg width="12" height="13" viewBox="0 0 12 13" fill="none" xmlns="http://www.w3.org/2000/svg">
<path d="M2.1473 9.77888L2.14644 9.77808C1.95102 9.59393 1.84608 9.30541 1.88341 8.97316C1.88341 8.9731 1.88342 8.97304 1.88343 8.97297L2.06836 7.35353C2.06837 7.3535 2.06837 7.35348 2.06837 7.35346C2.06837 7.35343 2.06838 7.35341 2.06838 7.35339C2.0821 7.23397 2.12742 7.0827 2.19673 6.93345C2.26624 6.7838 2.35171 6.65375 2.43379 6.56976L2.43382 6.56978L2.43672 6.56671L6.54172 2.22171L6.54172 2.2217C7.02713 1.70789 7.49233 1.47616 7.93455 1.46367C8.37679 1.45119 8.85446 1.65631 9.36831 2.14175C9.88213 2.62716 10.1139 3.09236 10.1263 3.53458C10.1388 3.97682 9.9337 4.45449 9.44826 4.96834L5.34327 9.31333L5.34223 9.31445C5.16962 9.49939 4.82952 9.68234 4.57955 9.72331L4.5779 9.72359L2.98125 9.99631C2.94257 9.99876 2.91264 10.0014 2.88649 10.0036C2.84477 10.0072 2.81267 10.01 2.76999 10.01C2.52124 10.01 2.3004 9.92452 2.1473 9.77888ZM6.72324 2.38337L6.72317 2.38344L2.61896 6.73261C2.61881 6.73277 2.61866 6.73292 2.61852 6.73308C2.54138 6.81425 2.47418 6.93095 2.42595 7.0343C2.37717 7.13882 2.33218 7.26328 2.31734 7.37087L2.31727 7.37086L2.31661 7.37666L2.13181 8.99494C2.13177 8.99525 2.13173 8.99557 2.1317 8.99588C2.10555 9.21336 2.15421 9.43677 2.31834 9.59178C2.48371 9.74796 2.70747 9.77902 2.91744 9.7472L2.91745 9.74725L2.92209 9.74646L4.53209 9.47146L4.53247 9.47139C4.64317 9.4523 4.76674 9.39956 4.8678 9.34519C4.96901 9.29075 5.08001 9.21726 5.15603 9.13744L5.15672 9.13671L9.26172 4.79171L9.26221 4.79119C9.57968 4.45324 9.84519 4.08021 9.87141 3.64636C9.89845 3.19908 9.66912 2.76706 9.19226 2.31884C8.76987 1.91261 8.36612 1.70502 7.96499 1.70502C7.47001 1.70502 7.07166 2.01446 6.72324 2.38337Z" fill="#394F91" stroke="#394F91" stroke-width="0.5"/>
<path d="M8.69075 5.47872L8.69094 5.47874C8.75522 5.48501 8.80611 5.54365 8.80174 5.61147C8.7911 5.67595 8.7325 5.72492 8.67022 5.72492H8.67016H8.6701H8.67004H8.66998H8.66992H8.66986H8.6698H8.66975H8.66969H8.66963H8.66957H8.66951H8.66945H8.66939H8.66933H8.66927H8.66921H8.66914H8.66908H8.66902H8.66896H8.6689H8.66884H8.66878H8.66872H8.66866H8.6686H8.66853H8.66847H8.66841H8.66835H8.66829H8.66822H8.66816H8.6681H8.66804H8.66798H8.66791H8.66785H8.66779H8.66772H8.66766H8.6676H8.66754H8.66747H8.66741H8.66735H8.66728H8.66722H8.66715H8.66709H8.66703H8.66696H8.6669H8.66683H8.66677H8.66671H8.66664H8.66658H8.66651H8.66645H8.66638H8.66632H8.66625H8.66619H8.66612H8.66606H8.66599H8.66593H8.66586H8.6658H8.66573H8.66566H8.6656H8.66553H8.66547H8.6654H8.66533H8.66527H8.6652H8.66514H8.66507H8.665H8.66494H8.66487H8.6648H8.66474H8.66467H8.6646H8.66454H8.66447H8.6644H8.66433H8.66427H8.6642H8.66413H8.66406H8.664H8.66393H8.66386H8.66379H8.66372H8.66366H8.66359H8.66352H8.66345H8.66338H8.66332H8.66325H8.66318H8.66311H8.66304H8.66297H8.6629H8.66284H8.66277H8.6627H8.66263H8.66256H8.66249H8.66242H8.66235H8.66228H8.66221H8.66214H8.66208H8.66201H8.66194H8.66187H8.6618H8.66173H8.66166H8.66159H8.66152H8.66145H8.66138H8.66131H8.66124H8.66117H8.6611H8.66103H8.66096H8.66089H8.66082H8.66075H8.66068H8.6606H8.66053H8.66046H8.66039H8.66032H8.66025H8.66018H8.66011H8.66004H8.65997H8.6599H8.65983H8.65975H8.65968H8.65961H8.65954H8.65947H8.6594H8.65933H8.65926H8.65918H8.65911H8.65904H8.65897H8.6589H8.65883H8.65875H8.65868H8.65861H8.65854H8.65847H8.6584H8.65832H8.65825H8.65818H8.65811H8.65804H8.65796H8.65789H8.65782H8.65775H8.65767H8.6576H8.65753H8.65746H8.65739H8.65731H8.65724H8.65717H8.6571H8.65702H8.65695H8.65688H8.65681H8.65673H8.65666H8.65659H8.65652H8.65644H8.65637H8.6563H8.65623H8.65615H8.65608H8.65601H8.65593H8.65586H8.65579H8.65572H8.65564H8.65557H8.6555H8.65542H8.65535H8.65528H8.65521H8.65513H8.65506H8.65499H8.65491H8.65484H8.65477H8.65469H8.65462H8.65455H8.65447H8.6544H8.65433H8.65426H8.65418H8.65411H8.65404H8.65396H8.65389H8.65382H8.65374H8.65367H8.6536H8.65352H8.65345H8.65338H8.6533H8.65323H8.65316H8.65308H8.65301H8.65294H8.65286H8.65279H8.65272H8.65264H8.65257H8.6525H8.65242H8.65235H8.65228H8.65221H8.65213H8.65206H8.65199H8.65191H8.65184H8.65177H8.65169H8.65162H8.65155H8.65147H8.6514H8.65133H8.65125H8.65118H8.65111H8.65103H8.65096H8.65089H8.65081H8.65074H8.65067H8.6506H8.65052H8.65045H8.65038H8.6503H8.65023H8.65016H8.65008H8.65001H8.64994H8.64987H8.64979H8.64972H8.64965H8.64957H8.6495H8.64943H8.64936H8.64928H8.64921H8.64914H8.64907H8.64899H8.64892H8.64885H8.64877H8.6487H8.64863H8.64856H8.64848H8.64841H8.64834H8.64827H8.64819H8.64812H8.64805H8.64798H8.64791H8.64784C7.20702 5.5763 6.04985 4.48035 5.82747 3.04795C5.81805 2.98073 5.86288 2.91565 5.93431 2.9019C6.00133 2.89364 6.0657 2.93908 6.07857 3.01079C6.28695 4.3317 7.3575 5.34759 8.69075 5.47872Z" fill="#394F91" stroke="#394F91" stroke-width="0.5"/>
<path d="M10.5 11.875H1.5C1.295 11.875 1.125 11.705 1.125 11.5C1.125 11.295 1.295 11.125 1.5 11.125H10.5C10.705 11.125 10.875 11.295 10.875 11.5C10.875 11.705 10.705 11.875 10.5 11.875Z" fill="#394F91"/>
</svg>
