<svg width="167" height="118" viewBox="0 0 167 118" fill="none" xmlns="http://www.w3.org/2000/svg">
<path d="M134.872 0.5H35.4439C30.8678 0.5 27.1582 4.20964 27.1582 8.78571V108.214C27.1582 112.79 30.8678 116.5 35.4439 116.5H134.872C139.449 116.5 143.158 112.79 143.158 108.214V8.78571C143.158 4.20964 139.449 0.5 134.872 0.5Z" fill="#C4CCF0"/>
<g filter="url(#filter0_d_402_27737)">
<path d="M45.385 45.2429H157.242C158.341 45.2429 159.395 45.6794 160.172 46.4563C160.949 47.2333 161.385 48.287 161.385 49.3858V70.1001C161.385 71.1988 160.949 72.2526 160.172 73.0295C159.395 73.8064 158.341 74.2429 157.242 74.2429H45.385C44.2863 74.2429 43.2325 73.8064 42.4556 73.0295C41.6787 72.2526 41.2422 71.1988 41.2422 70.1001V49.3858C41.2422 48.287 41.6787 47.2333 42.4556 46.4563C43.2325 45.6794 44.2863 45.2429 45.385 45.2429V45.2429Z" fill="white"/>
</g>
<path d="M106.7 51.8713H85.1576C83.7848 51.8713 82.6719 52.9842 82.6719 54.3571C82.6719 55.7299 83.7848 56.8428 85.1576 56.8428H106.7C108.073 56.8428 109.186 55.7299 109.186 54.3571C109.186 52.9842 108.073 51.8713 106.7 51.8713Z" fill="#C4CCF0"/>
<path d="M121.615 62.6428H85.1576C83.7848 62.6428 82.6719 63.7557 82.6719 65.1285C82.6719 66.5014 83.7848 67.6143 85.1576 67.6143H121.615C122.988 67.6143 124.1 66.5014 124.1 65.1285C124.1 63.7557 122.988 62.6428 121.615 62.6428Z" fill="#394F91"/>
<path d="M66.5121 67.6142C70.8593 67.6142 74.3835 64.09 74.3835 59.7428C74.3835 55.3955 70.8593 51.8713 66.5121 51.8713C62.1648 51.8713 58.6406 55.3955 58.6406 59.7428C58.6406 64.09 62.1648 67.6142 66.5121 67.6142Z" fill="#394F91"/>
<path d="M65.8166 61.6676H66.4662L64.9582 57.6714H64.2912L62.7832 61.6676H63.4386L63.8214 60.67H65.4338L65.8166 61.6676ZM64.6276 58.4428L65.225 60.119H64.0302L64.6276 58.4428Z" fill="white"/>
<path d="M68.6207 58.2398C69.0557 58.2398 69.2355 58.6052 69.2355 58.9416C69.2355 59.2838 69.0383 59.6376 68.5975 59.6376H67.6463V58.2398H68.6207ZM67.0257 61.6676H67.6463V60.2002H68.6323C69.4907 60.2002 69.8503 59.5738 69.8503 58.9416C69.8503 58.3094 69.4907 57.6714 68.6323 57.6714H67.0257V61.6676Z" fill="white"/>
<g filter="url(#filter1_d_402_27737)">
<path d="M9.75809 80.8713H121.615C122.714 80.8713 123.768 81.3078 124.545 82.0848C125.322 82.8617 125.758 83.9154 125.758 85.0142V105.728C125.758 106.827 125.322 107.881 124.545 108.658C123.768 109.435 122.714 109.871 121.615 109.871H9.75809C8.65934 109.871 7.60559 109.435 6.82865 108.658C6.05171 107.881 5.61523 106.827 5.61523 105.728V85.0142C5.61523 83.9154 6.05171 82.8617 6.82865 82.0848C7.60559 81.3078 8.65934 80.8713 9.75809 80.8713V80.8713Z" fill="white"/>
</g>
<path d="M71.0735 87.5H49.5306C48.1578 87.5 47.0449 88.6129 47.0449 89.9857C47.0449 91.3585 48.1578 92.4714 49.5306 92.4714H71.0735C72.4463 92.4714 73.5592 91.3585 73.5592 89.9857C73.5592 88.6129 72.4463 87.5 71.0735 87.5Z" fill="#C4CCF0"/>
<path d="M85.9878 98.2715H49.5306C48.1578 98.2715 47.0449 99.3844 47.0449 100.757C47.0449 102.13 48.1578 103.243 49.5306 103.243H85.9878C87.3606 103.243 88.4735 102.13 88.4735 100.757C88.4735 99.3844 87.3606 98.2715 85.9878 98.2715Z" fill="#394F91"/>
<path d="M20.1136 103.243C24.4609 103.243 27.985 99.7187 27.985 95.3714C27.985 91.0242 24.4609 87.5 20.1136 87.5C15.7663 87.5 12.2422 91.0242 12.2422 95.3714C12.2422 99.7187 15.7663 103.243 20.1136 103.243Z" fill="#394F91"/>
<path d="M17.6788 97.8654C18.5836 97.8654 18.9258 97.268 18.9258 96.5604V92.5178H18.3284V96.5604C18.3284 96.9548 18.1486 97.2912 17.6788 97.2912C17.6324 97.2912 17.3714 97.2796 17.2728 97.2448L17.2148 97.8016C17.3656 97.8364 17.5686 97.8654 17.6788 97.8654Z" fill="white"/>
<path d="M21.1755 96.572C21.9817 96.572 22.5269 96.0442 22.5269 95.3772C22.5269 94.7914 22.1035 94.426 21.4307 94.2578L20.9261 94.1302C20.4215 94.0026 20.3809 93.7358 20.3809 93.6082C20.3809 93.2428 20.7173 93.0166 21.0943 93.0166C21.5061 93.0166 21.8019 93.2718 21.8019 93.6488H22.3935C22.3935 92.9238 21.8309 92.4714 21.1117 92.4714C20.4041 92.4714 19.7835 92.918 19.7835 93.6198C19.7835 93.9504 19.9227 94.455 20.7753 94.6696L21.2857 94.7972C21.6105 94.8842 21.9295 95.0524 21.9295 95.4062C21.9295 95.7368 21.6511 96.0268 21.1755 96.0268C20.6767 96.0268 20.3577 95.6962 20.3461 95.354H19.7545C19.7545 95.9978 20.3229 96.572 21.1755 96.572Z" fill="white"/>
<g filter="url(#filter2_d_402_27737)">
<path d="M121.615 9.61426H9.75809C7.47005 9.61426 5.61523 11.4691 5.61523 13.7571V34.4714C5.61523 36.7594 7.47005 38.6143 9.75809 38.6143H121.615C123.903 38.6143 125.758 36.7594 125.758 34.4714V13.7571C125.758 11.4691 123.903 9.61426 121.615 9.61426Z" fill="white"/>
</g>
<path d="M69.4153 16.2429H47.8724C46.4996 16.2429 45.3867 17.3558 45.3867 18.7286C45.3867 20.1015 46.4996 21.2143 47.8724 21.2143H69.4153C70.7881 21.2143 71.901 20.1015 71.901 18.7286C71.901 17.3558 70.7881 16.2429 69.4153 16.2429Z" fill="#C4CCF0"/>
<path d="M84.3296 27.0144H47.8724C46.4996 27.0144 45.3867 28.1273 45.3867 29.5001C45.3867 30.8729 46.4996 31.9858 47.8724 31.9858H84.3296C85.7024 31.9858 86.8153 30.8729 86.8153 29.5001C86.8153 28.1273 85.7024 27.0144 84.3296 27.0144Z" fill="#394F91"/>
<path d="M30.8851 31.9858C35.2324 31.9858 38.7565 28.4616 38.7565 24.1143C38.7565 19.7671 35.2324 16.2429 30.8851 16.2429C26.5378 16.2429 23.0137 19.7671 23.0137 24.1143C23.0137 28.4616 26.5378 31.9858 30.8851 31.9858Z" fill="#394F91"/>
<path d="M27.1562 24.9256C27.1562 25.5752 27.7363 26.1436 28.5657 26.1436C29.3255 26.1436 29.8649 25.697 29.9286 25.0706C29.9925 24.4906 29.6619 24.044 28.8499 23.8294L28.3395 23.696C27.8639 23.5742 27.8058 23.3306 27.8058 23.174C27.8058 22.8492 28.1249 22.623 28.4961 22.623C28.9137 22.623 29.1921 22.855 29.1921 23.2262H29.8069C29.8069 22.4954 29.2501 22.043 28.5077 22.043C27.8059 22.043 27.1911 22.5012 27.1911 23.1856C27.1911 23.5394 27.3245 24.0266 28.1829 24.2586L28.6875 24.3862C29.0587 24.4732 29.3429 24.6646 29.3197 25.0358C29.2791 25.3316 29.0355 25.581 28.5657 25.581C28.0843 25.581 27.7885 25.2504 27.7711 24.9256H27.1562Z" fill="white"/>
<path d="M31.3335 22.6636H32.2731C33.0561 22.6636 33.4563 23.3074 33.4563 24.0962C33.4563 24.8908 33.0561 25.5172 32.2731 25.5172H31.3335V22.6636ZM32.2731 26.0856C33.4099 26.0856 34.0711 25.233 34.0711 24.0962C34.0711 22.9594 33.4099 22.0894 32.2731 22.0894H30.7187V26.0856H32.2731Z" fill="white"/>
<defs>
<filter id="filter0_d_402_27737" x="36.2708" y="42.7572" width="130.085" height="38.9429" filterUnits="userSpaceOnUse" color-interpolation-filters="sRGB">
<feFlood flood-opacity="0" result="BackgroundImageFix"/>
<feColorMatrix in="SourceAlpha" type="matrix" values="0 0 0 0 0 0 0 0 0 0 0 0 0 0 0 0 0 0 127 0" result="hardAlpha"/>
<feOffset dy="2.48571"/>
<feGaussianBlur stdDeviation="2.48571"/>
<feColorMatrix type="matrix" values="0 0 0 0 0 0 0 0 0 0 0 0 0 0 0 0 0 0 0.161 0"/>
<feBlend mode="normal" in2="BackgroundImageFix" result="effect1_dropShadow_402_27737"/>
<feBlend mode="normal" in="SourceGraphic" in2="effect1_dropShadow_402_27737" result="shape"/>
</filter>
<filter id="filter1_d_402_27737" x="0.643806" y="78.3856" width="130.085" height="38.9429" filterUnits="userSpaceOnUse" color-interpolation-filters="sRGB">
<feFlood flood-opacity="0" result="BackgroundImageFix"/>
<feColorMatrix in="SourceAlpha" type="matrix" values="0 0 0 0 0 0 0 0 0 0 0 0 0 0 0 0 0 0 127 0" result="hardAlpha"/>
<feOffset dy="2.48571"/>
<feGaussianBlur stdDeviation="2.48571"/>
<feColorMatrix type="matrix" values="0 0 0 0 0 0 0 0 0 0 0 0 0 0 0 0 0 0 0.161 0"/>
<feBlend mode="normal" in2="BackgroundImageFix" result="effect1_dropShadow_402_27737"/>
<feBlend mode="normal" in="SourceGraphic" in2="effect1_dropShadow_402_27737" result="shape"/>
</filter>
<filter id="filter2_d_402_27737" x="0.643806" y="7.12854" width="130.085" height="38.9429" filterUnits="userSpaceOnUse" color-interpolation-filters="sRGB">
<feFlood flood-opacity="0" result="BackgroundImageFix"/>
<feColorMatrix in="SourceAlpha" type="matrix" values="0 0 0 0 0 0 0 0 0 0 0 0 0 0 0 0 0 0 127 0" result="hardAlpha"/>
<feOffset dy="2.48571"/>
<feGaussianBlur stdDeviation="2.48571"/>
<feColorMatrix type="matrix" values="0 0 0 0 0 0 0 0 0 0 0 0 0 0 0 0 0 0 0.161 0"/>
<feBlend mode="normal" in2="BackgroundImageFix" result="effect1_dropShadow_402_27737"/>
<feBlend mode="normal" in="SourceGraphic" in2="effect1_dropShadow_402_27737" result="shape"/>
</filter>
</defs>
</svg>
