<svg width="20" height="20" viewBox="0 0 20 20" fill="none" xmlns="http://www.w3.org/2000/svg">
<path d="M9.10815 18.9579C8.70815 18.9579 8.30819 18.8579 7.94152 18.6579C7.19985 18.2412 6.75815 17.4995 6.75815 16.6579V12.1995C6.75815 11.7745 6.48314 11.1495 6.2248 10.8245L3.05815 7.49954C2.53315 6.97454 2.12482 6.05786 2.12482 5.38286V3.44955C2.12482 2.10788 3.1415 1.05786 4.43317 1.05786H15.5498C16.8248 1.05786 17.8582 2.09121 17.8582 3.36621V5.21621C17.8582 6.09121 17.3332 7.09952 16.8332 7.59119C16.5915 7.83286 16.1915 7.83286 15.9498 7.59119C15.7082 7.34952 15.7082 6.94953 15.9498 6.70786C16.2582 6.39953 16.6082 5.70788 16.6082 5.21621V3.36621C16.6082 2.78288 16.1331 2.30786 15.5498 2.30786H4.43317C3.8415 2.30786 3.37482 2.80788 3.37482 3.44955V5.38286C3.37482 5.6912 3.62482 6.29955 3.94982 6.62455L7.15818 9.99954C7.58318 10.5245 7.99981 11.4079 7.99981 12.1995V16.6579C7.99981 17.2079 8.37483 17.4745 8.54149 17.5662C8.89983 17.7662 9.32485 17.7579 9.65818 17.5579L10.8248 16.8079C11.0665 16.6662 11.2998 16.2079 11.2998 15.8995C11.2998 15.5579 11.5832 15.2745 11.9248 15.2745C12.2665 15.2745 12.5498 15.5579 12.5498 15.8995C12.5498 16.6495 12.0831 17.5079 11.4915 17.8662L10.3332 18.6162C9.95818 18.8412 9.53315 18.9579 9.10815 18.9579Z" fill="#394F91"/>
<path d="M13.3918 14.3917C11.5751 14.3917 10.1001 12.9167 10.1001 11.1C10.1001 9.28336 11.5751 7.80835 13.3918 7.80835C15.2084 7.80835 16.6835 9.28336 16.6835 11.1C16.6835 12.9167 15.2084 14.3917 13.3918 14.3917ZM13.3918 9.05835C12.2668 9.05835 11.3501 9.97503 11.3501 11.1C11.3501 12.225 12.2668 13.1417 13.3918 13.1417C14.5168 13.1417 15.4335 12.225 15.4335 11.1C15.4335 9.97503 14.5168 9.05835 13.3918 9.05835Z" fill="#394F91"/>
<path d="M16.5588 14.8913C16.4004 14.8913 16.2421 14.833 16.1171 14.708L15.2838 13.8746C15.0421 13.633 15.0421 13.233 15.2838 12.9913C15.5255 12.7496 15.9255 12.7496 16.1671 12.9913L17.0005 13.8246C17.2421 14.0663 17.2421 14.4663 17.0005 14.708C16.8838 14.8246 16.7171 14.8913 16.5588 14.8913Z" fill="#394F91"/>
</svg>
