<svg width="14" height="14" viewBox="0 0 14 14" fill="none" xmlns="http://www.w3.org/2000/svg">
<path d="M6.6956 8.21082C5.50712 8.21082 4.53625 7.24553 4.53625 6.05147C4.53625 4.85742 5.50712 3.89771 6.6956 3.89771C7.88408 3.89771 8.85495 4.863 8.85495 6.05705C8.85495 7.25111 7.88408 8.21082 6.6956 8.21082ZM6.6956 4.73466C5.97024 4.73466 5.37321 5.32611 5.37321 6.05705C5.37321 6.788 5.96466 7.37944 6.6956 7.37944C7.42654 7.37944 8.01799 6.788 8.01799 6.05705C8.01799 5.32611 7.42097 4.73466 6.6956 4.73466Z" fill="#394F91"/>
<path d="M6.69552 13.0039C5.86972 13.0039 5.03834 12.6914 4.3911 12.0721C2.74508 10.4875 0.926097 7.95985 1.6124 4.95239C2.23175 2.22391 4.61429 1.00195 6.69552 1.00195C6.69552 1.00195 6.69552 1.00195 6.7011 1.00195C8.78233 1.00195 11.1649 2.22391 11.7842 4.95797C12.4649 7.96543 10.646 10.4875 8.99994 12.0721C8.35269 12.6914 7.52131 13.0039 6.69552 13.0039ZM6.69552 1.83891C5.07182 1.83891 2.98501 2.70376 2.43262 5.13652C1.83001 7.76456 3.4816 10.0299 4.97697 11.4639C5.94226 12.3957 7.45436 12.3957 8.41965 11.4639C9.90943 10.0299 11.561 7.76456 10.9696 5.13652C10.4116 2.70376 8.31921 1.83891 6.69552 1.83891Z" fill="#394F91"/>
</svg>
