<svg width="14" height="14" viewBox="0 0 14 14" fill="none" xmlns="http://www.w3.org/2000/svg">
<path d="M11.5053 5.21497C10.9195 2.63714 8.67083 1.47656 6.69562 1.47656C6.69562 1.47656 6.69562 1.47656 6.69004 1.47656C4.7204 1.47656 2.46619 2.63156 1.88033 5.20939C1.2275 8.08852 2.99069 10.5269 4.58649 12.0613C5.17793 12.6304 5.93677 12.915 6.69562 12.915C7.45446 12.915 8.2133 12.6304 8.79917 12.0613C10.395 10.5269 12.1582 8.0941 11.5053 5.21497ZM6.69562 8.0104C5.72475 8.0104 4.93801 7.22366 4.93801 6.2528C4.93801 5.28193 5.72475 4.49519 6.69562 4.49519C7.66649 4.49519 8.45322 5.28193 8.45322 6.2528C8.45322 7.22366 7.66649 8.0104 6.69562 8.0104Z" fill="#E61B00"/>
</svg>
