<svg width="28" height="28" viewBox="0 0 28 28" fill="none" xmlns="http://www.w3.org/2000/svg">
<path d="M3.20812 21.758C2.72979 21.758 2.33312 21.3614 2.33312 20.883V14.233C2.27479 11.0714 3.45312 8.08469 5.64645 5.84469C7.83979 3.61636 10.7798 2.39136 13.9415 2.39136C20.4048 2.39136 25.6665 7.65302 25.6665 14.1164V20.7664C25.6665 21.2447 25.2698 21.6414 24.7915 21.6414C24.3131 21.6414 23.9165 21.2447 23.9165 20.7664V14.1164C23.9165 8.62136 19.4481 4.14136 13.9415 4.14136C11.2465 4.14136 8.74979 5.17969 6.89479 7.06969C5.02812 8.97136 4.03645 11.503 4.08312 14.2097V20.8714C4.08312 21.3614 3.69812 21.758 3.20812 21.758Z" fill="white"/>
<path d="M6.93 14.5251H6.77833C4.32833 14.5251 2.33333 16.5201 2.33333 18.9701V21.1635C2.33333 23.6135 4.32833 25.6085 6.77833 25.6085H6.93C9.38 25.6085 11.375 23.6135 11.375 21.1635V18.9701C11.375 16.5201 9.38 14.5251 6.93 14.5251Z" fill="white"/>
<path d="M21.2217 14.5251H21.07C18.62 14.5251 16.625 16.5201 16.625 18.9701V21.1635C16.625 23.6135 18.62 25.6085 21.07 25.6085H21.2217C23.6717 25.6085 25.6667 23.6135 25.6667 21.1635V18.9701C25.6667 16.5201 23.6717 14.5251 21.2217 14.5251Z" fill="white"/>
</svg>
