<svg width="24" height="24" viewBox="0 0 24 24" fill="none" xmlns="http://www.w3.org/2000/svg">
<path d="M19.34 14.49L18.34 12.83C18.13 12.46 17.94 11.76 17.94 11.35V8.82C17.94 6.47 16.56 4.44 14.57 3.49C14.05 2.57 13.09 2 11.99 2C10.9 2 9.92 2.59 9.4 3.52C7.45 4.49 6.1 6.5 6.1 8.82V11.35C6.1 11.76 5.91 12.46 5.7 12.82L4.69 14.49C4.29 15.16 4.2 15.9 4.45 16.58C4.69 17.25 5.26 17.77 6 18.02C7.94 18.68 9.98 19 12.02 19C14.06 19 16.1 18.68 18.04 18.03C18.74 17.8 19.28 17.27 19.54 16.58C19.8 15.89 19.73 15.13 19.34 14.49Z" fill="#CDCDD0"/>
<path d="M14.8297 20.01C14.4097 21.17 13.2997 22 11.9997 22C11.2097 22 10.4297 21.68 9.87969 21.11C9.55969 20.81 9.31969 20.41 9.17969 20C9.30969 20.02 9.43969 20.03 9.57969 20.05C9.80969 20.08 10.0497 20.11 10.2897 20.13C10.8597 20.18 11.4397 20.21 12.0197 20.21C12.5897 20.21 13.1597 20.18 13.7197 20.13C13.9297 20.11 14.1397 20.1 14.3397 20.07C14.4997 20.05 14.6597 20.03 14.8297 20.01Z" fill="#CDCDD0"/>
</svg>
