<svg width="14" height="14" viewBox="0 0 14 14" fill="none" xmlns="http://www.w3.org/2000/svg">
<path d="M9.20651 7.26224C8.97775 7.26224 8.78804 7.07253 8.78804 6.84376V5.85617C8.78804 5.59393 8.576 5.38188 8.31376 5.38188H4.18477C3.95601 5.38188 3.7663 5.19217 3.7663 4.9634C3.7663 4.73463 3.95601 4.54492 4.18477 4.54492H8.31376C9.03912 4.54492 9.62499 5.13639 9.62499 5.85617V6.84376C9.62499 7.07253 9.43528 7.26224 9.20651 7.26224Z" fill="#394F91"/>
<path d="M5.12745 6.31942C5.02144 6.31942 4.91542 6.28035 4.83173 6.19665L3.88875 5.25368C3.72694 5.09187 3.72694 4.82404 3.88875 4.66223L4.83173 3.71926C4.99354 3.55745 5.26136 3.55745 5.42317 3.71926C5.58499 3.88107 5.58499 4.1489 5.42317 4.31071L4.77593 4.95797L5.42317 5.6052C5.58499 5.76702 5.58499 6.03484 5.42317 6.19665C5.33948 6.28035 5.23346 6.31942 5.12745 6.31942Z" fill="#394F91"/>
<path d="M9.20651 9.46072H5.07753C4.35217 9.46072 3.7663 8.86929 3.7663 8.14951V7.16189C3.7663 6.93312 3.95601 6.74341 4.18477 6.74341C4.41354 6.74341 4.60325 6.93312 4.60325 7.16189V8.14951C4.60325 8.41175 4.81529 8.62377 5.07753 8.62377H9.20651C9.43528 8.62377 9.62499 8.81348 9.62499 9.04225C9.62499 9.27101 9.43528 9.46072 9.20651 9.46072Z" fill="#394F91"/>
<path d="M8.26355 10.3983C8.15753 10.3983 8.05152 10.3592 7.96782 10.2755C7.80601 10.1137 7.80601 9.84587 7.96782 9.68406L8.61507 9.03683L7.96782 8.38956C7.80601 8.22775 7.80601 7.95993 7.96782 7.79812C8.12964 7.6363 8.39746 7.6363 8.55927 7.79812L9.50225 8.74109C9.66406 8.9029 9.66406 9.17073 9.50225 9.33254L8.55927 10.2755C8.48116 10.3592 8.36956 10.3983 8.26355 10.3983Z" fill="#394F91"/>
<path d="M6.69564 12.9983C3.38687 12.9983 0.697449 10.3089 0.697449 7.00014C0.697449 3.69137 3.38687 1.00195 6.69564 1.00195C10.0044 1.00195 12.6938 3.69137 12.6938 7.00014C12.6938 10.3089 10.0044 12.9983 6.69564 12.9983ZM6.69564 1.83891C3.84999 1.83891 1.53441 4.15449 1.53441 7.00014C1.53441 9.84579 3.84999 12.1614 6.69564 12.1614C9.54129 12.1614 11.8569 9.84579 11.8569 7.00014C11.8569 4.15449 9.54129 1.83891 6.69564 1.83891Z" fill="#394F91"/>
</svg>
