<svg width="11" height="11" viewBox="0 0 11 11" fill="none" xmlns="http://www.w3.org/2000/svg">
<path d="M7.53529 10.0531C7.30914 10.0531 7.019 9.98052 6.65632 9.76718L5.38053 9.01195C5.24826 8.93515 4.99225 8.93515 4.86425 9.01195L3.58419 9.76718C2.82896 10.2152 2.38521 10.036 2.18467 9.89092C1.9884 9.74585 1.68119 9.37463 1.88173 8.52126L2.18467 7.21134C2.21881 7.07481 2.15054 6.84013 2.04813 6.73772L0.989958 5.67955C0.46087 5.15046 0.503538 4.69818 0.576074 4.4763C0.648611 4.25443 0.87902 3.86188 1.61292 3.73814L2.97404 3.512C3.10204 3.49066 3.28552 3.35412 3.34099 3.23892L4.09622 1.73272C4.43756 1.04576 4.88558 0.943359 5.12026 0.943359C5.35493 0.943359 5.80295 1.04576 6.1443 1.73272L6.89526 3.23465C6.955 3.34986 7.13847 3.48639 7.26648 3.50773L8.6276 3.73387C9.36576 3.85761 9.59617 4.25016 9.66444 4.47203C9.73271 4.69391 9.77538 5.14619 9.25056 5.67528L8.19238 6.73772C8.08998 6.84013 8.02597 7.07054 8.05584 7.21134L8.35879 8.52126C8.55506 9.37463 8.25211 9.74585 8.05584 9.89092C7.94917 9.96772 7.7785 10.0531 7.53529 10.0531ZM5.12026 8.31219C5.32933 8.31219 5.53841 8.36339 5.70481 8.46153L6.9806 9.21676C7.35181 9.43863 7.58649 9.43863 7.67609 9.37463C7.7657 9.31063 7.8297 9.08449 7.73583 8.66634L7.43288 7.35642C7.35181 7.00227 7.48408 6.54572 7.74009 6.28544L8.79827 5.22726C9.00735 5.01819 9.10122 4.81338 9.05855 4.67258C9.01161 4.53177 8.81534 4.41657 8.52519 4.36963L7.16407 4.14349C6.83553 4.08802 6.47711 3.82347 6.32777 3.5248L5.57681 2.02287C5.44027 1.74979 5.2696 1.58765 5.12026 1.58765C4.97092 1.58765 4.80024 1.74979 4.66797 2.02287L3.91274 3.5248C3.7634 3.82347 3.40499 4.08802 3.07644 4.14349L1.71959 4.36963C1.42944 4.41657 1.23317 4.53177 1.18623 4.67258C1.1393 4.81338 1.23743 5.02246 1.44651 5.22726L2.50468 6.28544C2.7607 6.54145 2.89297 7.00227 2.8119 7.35642L2.50895 8.66634C2.41081 9.08875 2.47908 9.31063 2.56869 9.37463C2.65829 9.43863 2.8887 9.43437 3.26418 9.21676L4.53997 8.46153C4.70211 8.36339 4.91118 8.31219 5.12026 8.31219Z" fill="#394F91"/>
</svg>
