<svg width="24" height="24" viewBox="0 0 24 24" fill="none" xmlns="http://www.w3.org/2000/svg">
<circle cx="12" cy="12" r="12" fill="#394F91"/>
<path d="M12.8163 15.1944C12.7134 15.1944 12.6104 15.1564 12.5292 15.0752C12.3721 14.9181 12.3721 14.6581 12.5292 14.501L15.53 11.5002L12.5292 8.49935C12.3721 8.34227 12.3721 8.08227 12.5292 7.92519C12.6863 7.7681 12.9463 7.7681 13.1034 7.92519L16.3913 11.2131C16.5484 11.3702 16.5484 11.6302 16.3913 11.7873L13.1034 15.0752C13.0221 15.1564 12.9192 15.1944 12.8163 15.1944Z" fill="white"/>
<path d="M16.0121 11.9062H6.89587C6.67379 11.9062 6.48962 11.7221 6.48962 11.5C6.48962 11.2779 6.67379 11.0938 6.89587 11.0938H16.0121C16.2342 11.0938 16.4184 11.2779 16.4184 11.5C16.4184 11.7221 16.2342 11.9062 16.0121 11.9062Z" fill="white"/>
</svg>
