<svg width="14" height="14" viewBox="0 0 14 14" fill="none" xmlns="http://www.w3.org/2000/svg">
<mask id="path-1-inside-1_296_1124" fill="white">
<path d="M6.99996 13.2709C3.54079 13.2709 0.729126 10.4592 0.729126 7.00008C0.729126 3.54091 3.54079 0.729248 6.99996 0.729248C10.4591 0.729248 13.2708 3.54091 13.2708 7.00008C13.2708 10.4592 10.4591 13.2709 6.99996 13.2709ZM6.99996 1.60425C4.02496 1.60425 1.60413 4.02508 1.60413 7.00008C1.60413 9.97508 4.02496 12.3959 6.99996 12.3959C9.97496 12.3959 12.3958 9.97508 12.3958 7.00008C12.3958 4.02508 9.97496 1.60425 6.99996 1.60425Z"/>
</mask>
<path d="M6.99996 12.2709C4.09308 12.2709 1.72913 9.90696 1.72913 7.00008H-0.270874C-0.270874 11.0115 2.98851 14.2709 6.99996 14.2709V12.2709ZM1.72913 7.00008C1.72913 4.0932 4.09308 1.72925 6.99996 1.72925V-0.270752C2.98851 -0.270752 -0.270874 2.98863 -0.270874 7.00008H1.72913ZM6.99996 1.72925C9.90684 1.72925 12.2708 4.0932 12.2708 7.00008H14.2708C14.2708 2.98863 11.0114 -0.270752 6.99996 -0.270752V1.72925ZM12.2708 7.00008C12.2708 9.90696 9.90684 12.2709 6.99996 12.2709V14.2709C11.0114 14.2709 14.2708 11.0115 14.2708 7.00008H12.2708ZM6.99996 0.604248C3.47267 0.604248 0.604126 3.4728 0.604126 7.00008H2.60413C2.60413 4.57737 4.57724 2.60425 6.99996 2.60425V0.604248ZM0.604126 7.00008C0.604126 10.5274 3.47267 13.3959 6.99996 13.3959V11.3959C4.57724 11.3959 2.60413 9.4228 2.60413 7.00008H0.604126ZM6.99996 13.3959C10.5272 13.3959 13.3958 10.5274 13.3958 7.00008H11.3958C11.3958 9.4228 9.42267 11.3959 6.99996 11.3959V13.3959ZM13.3958 7.00008C13.3958 3.4728 10.5272 0.604248 6.99996 0.604248V2.60425C9.42267 2.60425 11.3958 4.57737 11.3958 7.00008H13.3958Z" fill="#E6B432" mask="url(#path-1-inside-1_296_1124)"/>
<mask id="path-3-inside-2_296_1124" fill="white">
<path d="M9.16396 9.29228C9.08813 9.29228 9.01229 9.27478 8.94229 9.22812L7.13396 8.14895C6.68479 7.88062 6.35229 7.29145 6.35229 6.77228V4.38062C6.35229 4.14145 6.55063 3.94312 6.78979 3.94312C7.02896 3.94312 7.22729 4.14145 7.22729 4.38062V6.77228C7.22729 6.98228 7.40229 7.29145 7.58313 7.39645L9.39146 8.47562C9.60146 8.59812 9.66563 8.86645 9.54313 9.07645C9.45563 9.21645 9.30979 9.29228 9.16396 9.29228Z"/>
</mask>
<path d="M8.94229 9.22812L9.49699 8.39607L9.47621 8.38221L9.45475 8.3694L8.94229 9.22812ZM7.13396 8.14895L6.62111 9.00742L6.6215 9.00766L7.13396 8.14895ZM7.58313 7.39645L8.09562 6.53767L8.08526 6.53166L7.58313 7.39645ZM9.39146 8.47562L8.87898 9.33437L8.88759 9.33939L9.39146 8.47562ZM9.54313 9.07645L10.3911 9.60645L10.3992 9.5935L10.4069 9.58032L9.54313 9.07645ZM9.16396 8.29228C9.24765 8.29228 9.37379 8.31393 9.49699 8.39607L8.38759 10.0602C8.6508 10.2356 8.92861 10.2923 9.16396 10.2923V8.29228ZM9.45475 8.3694L7.64642 7.29024L6.6215 9.00766L8.42984 10.0868L9.45475 8.3694ZM7.64682 7.29047C7.50047 7.20305 7.35229 6.9403 7.35229 6.77228H5.35229C5.35229 7.64259 5.86912 8.55818 6.62111 9.00742L7.64682 7.29047ZM7.35229 6.77228V4.38062H5.35229V6.77228H7.35229ZM7.35229 4.38062C7.35229 4.69373 7.10291 4.94312 6.78979 4.94312V2.94312C5.99834 2.94312 5.35229 3.58916 5.35229 4.38062H7.35229ZM6.78979 4.94312C6.47668 4.94312 6.22729 4.69373 6.22729 4.38062H8.22729C8.22729 3.58916 7.58125 2.94312 6.78979 2.94312V4.94312ZM6.22729 4.38062V6.77228H8.22729V4.38062H6.22729ZM6.22729 6.77228C6.22729 7.114 6.3541 7.4176 6.46815 7.61812C6.58149 7.81739 6.77965 8.08627 7.08099 8.26124L8.08526 6.53166C8.15687 6.57324 8.19193 6.61224 8.19841 6.61952C8.20799 6.6303 8.20903 6.63356 8.20664 6.62936C8.20429 6.62523 8.20609 6.62698 8.20997 6.63912C8.21249 6.64698 8.22729 6.69372 8.22729 6.77228H6.22729ZM7.07067 8.25516L8.879 9.33433L9.90392 7.6169L8.09559 6.53774L7.07067 8.25516ZM8.88759 9.33939C8.59802 9.17048 8.53689 8.81679 8.67935 8.57258L10.4069 9.58032C10.7944 8.91611 10.6049 8.02575 9.89533 7.61184L8.88759 9.33939ZM8.69513 8.54645C8.78956 8.39536 8.96348 8.29228 9.16396 8.29228V10.2923C9.65611 10.2923 10.1217 10.0375 10.3911 9.60645L8.69513 8.54645Z" fill="#E6B432" mask="url(#path-3-inside-2_296_1124)"/>
</svg>
