<svg width="25" height="24" viewBox="0 0 25 24" fill="none" xmlns="http://www.w3.org/2000/svg">
<g clip-path="url(#clip0_296_2373)">
<path d="M21.3603 8.36985L14.4303 2.82985C13.3603 1.96985 11.6303 1.96985 10.5703 2.81985L3.64027 8.36985C2.86027 8.98985 2.36027 10.2998 2.53027 11.2798L3.86027 19.2398C4.10027 20.6598 5.46027 21.8098 6.90027 21.8098H18.1003C19.5303 21.8098 20.9003 20.6498 21.1403 19.2398L22.4703 11.2798C22.6303 10.2998 22.1303 8.98985 21.3603 8.36985ZM12.5003 15.4998C11.1203 15.4998 10.0003 14.3798 10.0003 12.9998C10.0003 11.6198 11.1203 10.4998 12.5003 10.4998C13.8803 10.4998 15.0003 11.6198 15.0003 12.9998C15.0003 14.3798 13.8803 15.4998 12.5003 15.4998Z" fill="#CDCDD0"/>
</g>
<defs>
<clipPath id="clip0_296_2373">
<rect width="24" height="24" fill="white" transform="translate(0.5)"/>
</clipPath>
</defs>
</svg>
