<svg width="11" height="11" viewBox="0 0 11 11" fill="none" xmlns="http://www.w3.org/2000/svg">
<path d="M5.3055 10.0913C4.67401 10.0913 4.03825 9.85236 3.5433 9.37874C2.28458 8.16695 0.893592 6.23408 1.41841 3.93425C1.89203 1.84777 3.71397 0.91333 5.3055 0.91333C5.3055 0.91333 5.3055 0.91333 5.30977 0.91333C6.9013 0.91333 8.72324 1.84777 9.19686 3.93852C9.71741 6.23834 8.32642 8.16695 7.06771 9.37874C6.57275 9.85236 5.93699 10.0913 5.3055 10.0913ZM5.3055 1.55336C4.06385 1.55336 2.46806 2.21472 2.04564 4.07506C1.58482 6.08474 2.8478 7.81707 3.99132 8.91365C4.72948 9.62621 5.88579 9.62621 6.62396 8.91365C7.7632 7.81707 9.02618 6.08474 8.5739 4.07506C8.14722 2.21472 6.54715 1.55336 5.3055 1.55336Z" fill="#394F91"/>
<path d="M4.77246 6.24682C4.69139 6.24682 4.61032 6.21695 4.54632 6.15295L3.9063 5.51292C3.78256 5.38918 3.78256 5.18437 3.9063 5.06064C4.03003 4.9369 4.23484 4.9369 4.35858 5.06064L4.77246 5.47452L6.25306 3.99393C6.37679 3.87019 6.5816 3.87019 6.70534 3.99393C6.82908 4.11767 6.82908 4.32247 6.70534 4.44621L4.99861 6.15295C4.9346 6.21695 4.85353 6.24682 4.77246 6.24682Z" fill="#394F91"/>
</svg>
