<svg width="20" height="20" viewBox="0 0 20 20" fill="none" xmlns="http://www.w3.org/2000/svg">
<path d="M9.58332 18.1251C4.87499 18.1251 1.04166 14.2917 1.04166 9.58342C1.04166 4.87508 4.87499 1.04175 9.58332 1.04175C14.2917 1.04175 18.125 4.87508 18.125 9.58342C18.125 14.2917 14.2917 18.1251 9.58332 18.1251ZM9.58332 2.29175C5.55832 2.29175 2.29166 5.56675 2.29166 9.58342C2.29166 13.6001 5.55832 16.8751 9.58332 16.8751C13.6083 16.8751 16.875 13.6001 16.875 9.58342C16.875 5.56675 13.6083 2.29175 9.58332 2.29175Z" fill="#394F91"/>
<path d="M18.3337 18.9588C18.1753 18.9588 18.017 18.9004 17.892 18.7754L16.2253 17.1088C15.9837 16.8671 15.9837 16.4671 16.2253 16.2254C16.467 15.9838 16.867 15.9838 17.1087 16.2254L18.7754 17.8921C19.017 18.1338 19.017 18.5338 18.7754 18.7754C18.6504 18.9004 18.492 18.9588 18.3337 18.9588Z" fill="#394F91"/>
</svg>
