<svg width="14" height="15" viewBox="0 0 14 15" fill="none" xmlns="http://www.w3.org/2000/svg">
<path opacity="0.4" d="M8.36959 2.47838V7.50012C8.36959 8.11389 7.86742 8.61606 7.25365 8.61606H1.11597V5.0562C1.52329 5.54164 2.14823 5.84295 2.84011 5.82621C3.40366 5.81505 3.9114 5.59744 4.29082 5.23476C4.46379 5.08969 4.60888 4.90555 4.72047 4.70468C4.92134 4.36432 5.03292 3.96257 5.02176 3.54409C5.00503 2.89126 4.71489 2.31657 4.26293 1.92041H7.81162C8.1185 1.92041 8.36959 2.1715 8.36959 2.47838Z" fill="#93A3E4"/>
<path d="M12.2754 8.61598V10.2899C12.2754 11.2161 11.5277 11.9638 10.6015 11.9638H10.0435C10.0435 11.35 9.54133 10.8479 8.92756 10.8479C8.31379 10.8479 7.81162 11.35 7.81162 11.9638H5.57974C5.57974 11.35 5.07756 10.8479 4.46379 10.8479C3.85002 10.8479 3.34785 11.35 3.34785 11.9638H2.78988C1.86365 11.9638 1.11597 11.2161 1.11597 10.2899V8.61598H7.25365C7.86742 8.61598 8.36959 8.1138 8.36959 7.50004V3.59424H9.39627C9.79801 3.59424 10.1663 3.81185 10.3671 4.15779L11.3212 5.82612H10.6015C10.2946 5.82612 10.0435 6.07721 10.0435 6.38409V8.05801C10.0435 8.36489 10.2946 8.61598 10.6015 8.61598H12.2754Z" fill="#93A3E4"/>
<path opacity="0.4" d="M4.46372 13.0798C5.08004 13.0798 5.57966 12.5802 5.57966 11.9638C5.57966 11.3475 5.08004 10.8479 4.46372 10.8479C3.8474 10.8479 3.34778 11.3475 3.34778 11.9638C3.34778 12.5802 3.8474 13.0798 4.46372 13.0798Z" fill="#93A3E4"/>
<path opacity="0.4" d="M8.92759 13.0798C9.54391 13.0798 10.0435 12.5802 10.0435 11.9638C10.0435 11.3475 9.54391 10.8479 8.92759 10.8479C8.31127 10.8479 7.81165 11.3475 7.81165 11.9638C7.81165 12.5802 8.31127 13.0798 8.92759 13.0798Z" fill="#93A3E4"/>
<path opacity="0.4" d="M12.2753 7.79583V8.61603H10.6014C10.2945 8.61603 10.0435 8.36494 10.0435 8.05806V6.38414C10.0435 6.07726 10.2945 5.82617 10.6014 5.82617H11.3212L12.1303 7.24341C12.2251 7.4108 12.2753 7.60054 12.2753 7.79583Z" fill="#93A3E4"/>
<path d="M4.26295 1.92021C3.86121 1.56311 3.32554 1.35108 2.73967 1.36224C2.21517 1.3734 1.73533 1.56868 1.35591 1.88115C0.853734 2.29962 0.541275 2.94131 0.558014 3.64435C0.569173 4.06283 0.69193 4.4534 0.909538 4.7826C0.970915 4.87746 1.03787 4.97231 1.11598 5.056C1.5233 5.54144 2.14825 5.84274 2.84013 5.826C3.40368 5.81485 3.91142 5.59724 4.29084 5.23456C4.46381 5.08948 4.6089 4.90535 4.72049 4.70448C4.92136 4.36411 5.03294 3.96237 5.02178 3.54389C5.00504 2.89106 4.71491 2.31637 4.26295 1.92021ZM3.93932 3.32631L2.77314 4.45338C2.68945 4.5315 2.58904 4.57057 2.48302 4.57057C2.37701 4.57057 2.27656 4.5315 2.19286 4.45338L1.62931 3.91775C1.46192 3.75594 1.45636 3.4937 1.61817 3.32631C1.77998 3.15891 2.04223 3.15332 2.20962 3.31513L2.48302 3.57736L3.35904 2.72927C3.52643 2.56746 3.78868 2.57302 3.95049 2.74041C4.1123 2.90222 4.10671 3.16449 3.93932 3.32631Z" fill="#93A3E4"/>
</svg>
